<?xml version="1.0" encoding="utf-8"?>
<!-- Generator: Adobe Illustrator 19.1.0, SVG Export Plug-In . SVG Version: 6.00 Build 0)  -->
<svg version="1.1" id="Layer_1" xmlns="http://www.w3.org/2000/svg" xmlns:xlink="http://www.w3.org/1999/xlink" x="0px" y="0px"
	 viewBox="-75 348.2 90 90" style="enable-background:new -75 348.2 90 90;" xml:space="preserve">
<style type="text/css">
	.st0{opacity:0.8;fill:#DCAF27;enable-background:new    ;}
	.st1{clip-path:url(#SVGID_2_);}
	.st2{fill:#671E75;}
	.st3{clip-path:url(#SVGID_2_);fill:none;}
</style>
<circle class="st0" cx="-29.5" cy="393.7" r="44.5"/>
<g>
	<defs>
		<rect id="SVGID_1_" x="-75" y="348.2" width="90" height="90"/>
	</defs>
	<clipPath id="SVGID_2_">
		<use xlink:href="#SVGID_1_"  style="overflow:visible;"/>
	</clipPath>
	<g transform="translate(0 0)" class="st1">
		<path class="st2" d="M12.7,377.4L2,369.8l-6.8-4.8l-9-6.3l-3-2.1l-3-2.1l-7.8-5.5c-1.5-1.1-3.6-1.1-5.2,0l-40.3,28.4
			c-2,1.4-2.5,4.2-1.1,6.2c0.7,1,1.7,1.6,2.9,1.8c0.3,0,0.5,0.1,0.8,0.1c0.9,0,1.8-0.3,2.6-0.8l1.9-1.3v49.9c0,2.5,2,4.5,4.5,4.5
			H1.1c2.5,0,4.5-2,4.5-4.5v-50l1.9,1.3c2,1.4,4.8,0.9,6.2-1.1C15.2,381.6,14.7,378.8,12.7,377.4z M2.6,433.3c0,0.8-0.7,1.5-1.5,1.5
			c0,0,0,0,0,0h-62.7c-0.8,0-1.5-0.7-1.5-1.5c0,0,0,0,0,0v-52l32.8-23.1l32.8,23.1V433.3z M11.6,381.2c-0.1,0.5-0.4,1-0.9,1.2
			c-0.5,0.2-1.1,0.2-1.5-0.2l-38.6-27.2c-0.5-0.4-1.2-0.4-1.7,0l-38.6,27.2c-0.7,0.4-1.6,0.2-2.1-0.5c-0.4-0.6-0.2-1.4,0.3-1.9
			l40.3-28.4c0.5-0.4,1.2-0.4,1.7,0L11,379.8C11.4,380.1,11.7,380.6,11.6,381.2L11.6,381.2z"/>
		<path class="st2" d="M-16,376.6c-5.3,0-10.4,2.1-14.2,5.8c-3.8-3.7-8.9-5.8-14.2-5.8c-8.8,0-15.7,8.7-15.7,19.7
			c0,11.9,7.7,28.3,29.4,35.5c0.3,0.1,0.6,0.1,0.9,0c21.7-7.2,29.4-23.6,29.4-35.5C-0.3,385.2-7.2,376.6-16,376.6z M-30.2,428.7
			c-19.8-6.8-26.9-21.7-26.9-32.5c0-9.4,5.6-16.7,12.7-16.7c5,0.1,9.7,2.2,13,6c0.3,0.4,0.7,0.6,1.2,0.6c0.5,0,0.9-0.2,1.2-0.6
			c3.3-3.7,8-5.9,13-6c7.1,0,12.7,7.3,12.7,16.7C-3.3,407.1-10.4,422-30.2,428.7z"/>
		<path class="st2" d="M-22.1,407c-1.6-2.9-3.7-6.6-8.1-6.6s-6.5,3.6-8.1,6.6c-0.5,1-1.1,2-1.8,2.9c-2,2.3-2.5,5.6-1.4,8.4
			c0.9,2,2.9,3.2,5.1,3c1.3,0,2.5-0.3,3.7-0.9c0.8-0.4,1.7-0.6,2.6-0.6c0.9,0,1.8,0.3,2.6,0.6c1.2,0.5,2.4,0.8,3.7,0.9
			c2.1,0.1,4.2-1.1,5.1-3c1.1-2.8,0.5-6.1-1.4-8.4C-21,409-21.6,408-22.1,407L-22.1,407z M-21.6,417.1c-0.4,0.9-1.4,1.4-2.4,1.3
			c-0.9,0-1.8-0.3-2.6-0.6c-1.2-0.5-2.4-0.8-3.7-0.9c-1.3,0-2.5,0.3-3.7,0.9c-0.8,0.4-1.7,0.6-2.6,0.6c-1,0.1-1.9-0.4-2.4-1.3
			c-0.6-1.8-0.2-3.8,1-5.2c0.8-1.1,1.6-2.2,2.2-3.4c1.8-3.1,3-5,5.5-5s3.7,1.9,5.5,5c0.6,1.2,1.3,2.3,2.2,3.4
			C-21.3,413.3-21,415.3-21.6,417.1z"/>
		<path class="st2" d="M-43.6,394c0.6,3.7,3.4,6.4,6.3,6.4c0.3,0,0.6,0,0.8-0.1c1.7-0.3,3.2-1.5,3.9-3.1c1.6-3.4,0.9-7.4-1.8-10.1
			c-2-2.1-5.3-2.2-7.4-0.2c-0.5,0.5-0.9,1.1-1.2,1.7C-43.6,390.3-43.9,392.1-43.6,394L-43.6,394z M-40.2,390c0.3-0.7,1-1.3,1.8-1.5
			c0.1,0,0.2,0,0.3,0c0.7,0,1.3,0.3,1.8,0.8c1.7,1.8,2.1,4.3,1.1,6.6c-0.3,0.7-1,1.3-1.8,1.5c-1.6,0.3-3.3-1.5-3.7-3.9
			C-40.8,392.3-40.7,391.1-40.2,390z"/>
		<path class="st2" d="M-40.8,403.3c-0.7-3-3.7-4.9-6.8-4.1c-1.4,0.4-2.5,1.5-3.1,2.9c-1.1,2.9-0.1,6.1,2.5,7.9
			c0.8,0.5,1.8,0.8,2.8,0.9c0.5,0,0.9-0.1,1.4-0.2c1.4-0.4,2.5-1.5,3.1-2.9C-40.4,406.3-40.4,404.8-40.8,403.3z M-43.7,406.5
			c-0.3,1-1.3,1.5-2.3,1.2c-0.2-0.1-0.4-0.2-0.6-0.3c-1.3-0.9-1.9-2.7-1.3-4.2c0.2-0.6,0.6-1,1.2-1.2c0.2,0,0.3-0.1,0.5-0.1
			c1.2,0.2,2.2,1.1,2.5,2.3C-43.4,405-43.4,405.8-43.7,406.5L-43.7,406.5z"/>
		<path class="st2" d="M-17.5,388.7c-0.7-1.6-2.2-2.7-3.9-3.1c-3.2-0.6-6.5,2.3-7.2,6.3s1.4,7.8,4.6,8.4c0.3,0.1,0.5,0.1,0.8,0.1
			c3,0,5.7-2.7,6.3-6.4C-16.5,392.2-16.7,390.3-17.5,388.7z M-19.7,393.5c-0.4,2.4-2.1,4.2-3.7,3.9c-1.6-0.3-2.6-2.5-2.2-4.9
			c0.4-2.2,1.9-3.9,3.4-3.9c0.1,0,0.2,0,0.3,0c0.8,0.2,1.4,0.7,1.8,1.5C-19.7,391.1-19.5,392.3-19.7,393.5z"/>
		<path class="st2" d="M-12.8,399.2c-3-0.7-6,1.1-6.8,4.1c-0.5,1.4-0.4,3,0.2,4.4c0.5,1.4,1.7,2.4,3.1,2.9c0.4,0.1,0.9,0.2,1.4,0.2
			c1,0,2-0.3,2.8-0.9c2.6-1.7,3.6-5,2.5-7.9C-10.3,400.7-11.4,399.6-12.8,399.2L-12.8,399.2z M-12.5,405.5c-0.2,0.8-0.7,1.4-1.4,1.9
			c-0.5,0.4-1.1,0.5-1.7,0.3c-0.6-0.2-1-0.6-1.2-1.2c-0.3-0.7-0.3-1.6-0.1-2.3c0.5-1.5,1.9-2.5,3-2.2c0.6,0.2,1,0.6,1.2,1.2
			C-12.2,404-12.2,404.8-12.5,405.5L-12.5,405.5z"/>
	</g>
	<path class="st3" d="M2,369.8l-6.8-4.8l-9-6.3l-3-2.1l-3.1-2.2"/>
</g>
</svg>
