<?xml version="1.0" encoding="utf-8"?>
<!-- Generator: Adobe Illustrator 19.1.0, SVG Export Plug-In . SVG Version: 6.00 Build 0)  -->
<svg version="1.1" id="Layer_1" xmlns="http://www.w3.org/2000/svg" xmlns:xlink="http://www.w3.org/1999/xlink" x="0px" y="0px"
	 viewBox="-75 348.2 90 90" style="enable-background:new -75 348.2 90 90;" xml:space="preserve">
<style type="text/css">
	.st0{opacity:0.8;fill:#DCAF27;enable-background:new    ;}
	.st1{clip-path:url(#SVGID_2_);}
	.st2{fill:none;stroke:#671E75;stroke-width:2.706;stroke-linecap:round;stroke-linejoin:round;}
	.st3{fill:none;stroke:#671E75;stroke-width:2.03;stroke-linecap:round;stroke-linejoin:round;}
</style>
<circle class="st0" cx="-30.5" cy="392.7" r="44.5"/>
<g>
	<defs>
		<rect id="SVGID_1_" x="-75" y="348.2" width="90" height="90"/>
	</defs>
	<clipPath id="SVGID_2_">
		<use xlink:href="#SVGID_1_"  style="overflow:visible;"/>
	</clipPath>
	<g transform="translate(-452 3)" class="st1">
		<g transform="translate(913.025 1015.254)">
			<path class="st2" d="M-502.6-647.4c-1.2,3.6-5.1,5.5-8.7,4.3c-3.6-1.2-5.5-5.1-4.3-8.7c1.2-3.6,5.1-5.5,8.6-4.3
				C-503.3-654.9-501.4-651-502.6-647.4C-502.6-647.5-502.6-647.4-502.6-647.4L-502.6-647.4z"/>
			<path class="st2" d="M-510.3-629.3c1.4-4.7-2.1-11.3-7.4-11.5c-5.5-0.2-8.1,6.2-10.3,10.1c-2.2,3.9-4.2,7.9-5.9,12
				c-1.4,4.9,1.4,10.1,6.3,11.6l12.3,3.9h-14.7c-2.3,0-4.3,1.7-4.6,4c-0.2,2.4,1.5,4.6,4,4.8c0.1,0,0.3,0,0.4,0h17.1
				c4.7,0,8.6-3.8,8.6-8.6c0-0.2,0-0.5,0-0.7c-0.3-3.2-2.4-6-5.5-7.2l-4.9-2.6l2-6.8"/>
			<path class="st2" d="M-513.6-631.3l18.6,10.9c1.8,1.1,2.4,3.5,1.4,5.3l0,0c-1.1,1.8-3.5,2.4-5.3,1.4l-17.3-10.1"/>
			<path class="st2" d="M-455-604l0.5,7c0.1,1.9,1.7,3.3,3.6,3.3l0,0c2,0,3.6-1.6,3.6-3.6c0,0,0,0,0,0v-25.6c0-1.3-1-2.3-2.3-2.3
				l0,0l0,0c-1.1,0-2,0.7-2.2,1.7l-2.2,8"/>
			<path class="st2" d="M-456.6-602.9c-2,0.2-4,0.3-6,0.3c-1.8,0-3.6-0.1-5.3-0.3"/>
			<path class="st2" d="M-469.5-615.9c1.9-0.2,5.5-0.3,7.6-0.3c1.8,0,4.6,0.1,6.3,0.3"/>
			<path class="st2" d="M-470.3-616.3l0.4-5.2c0.2-2.2-0.8-4.4-2.6-5.8l0,0c-2.6-1.9-6.1-1.7-8.5,0.5l-3.7,3.5l-1.4,0.6
				c-1.6,0.7-2.4,2.6-1.7,4.2c0.1,0.2,0.1,0.3,0.2,0.4l0,0c0.7,1.2,2,1.9,3.4,2l1,0c3.1,0,5.6,2.5,5.6,5.6v13.1c0,2,1.6,3.6,3.6,3.6
				l0,0c1.9,0,3.4-1.4,3.6-3.3l0.8-6.6"/>
			<path class="st2" d="M-470.1-623.9c0.6,1.6-0.2,3.4-1.9,4c-1.5,0.6-3.3-0.2-3.9-1.7"/>
			<path class="st2" d="M-470.2-616c0,0-3.5,3.2-7.1,3.7"/>
			<path class="st3" d="M-485.3-636.2l-0.4,0.4l-5,5l-5-5l-0.4-0.4c-3.4-3.6,2.3-8.4,5.3-4.6C-487.6-644.6-481.9-639.8-485.3-636.2z
				"/>
		</g>
	</g>
</g>
</svg>
