<?xml version="1.0" encoding="utf-8"?>
<!-- Generator: Adobe Illustrator 19.1.0, SVG Export Plug-In . SVG Version: 6.00 Build 0)  -->
<svg version="1.1" id="Layer_1" xmlns="http://www.w3.org/2000/svg" xmlns:xlink="http://www.w3.org/1999/xlink" x="0px" y="0px"
	 viewBox="-75 348.2 90 90" style="enable-background:new -75 348.2 90 90;" xml:space="preserve">
<style type="text/css">
	.st0{opacity:0.8;fill:#DCAF27;enable-background:new    ;}
	.st1{clip-path:url(#SVGID_2_);}
	.st2{fill:#671E75;}
</style>
<g transform="translate(-461 -1006)">
	<circle class="st0" cx="430.5" cy="1398.7" r="44.5"/>
	<g>
		<defs>
			<rect id="SVGID_1_" x="386" y="1354.2" width="90" height="90"/>
		</defs>
		<clipPath id="SVGID_2_">
			<use xlink:href="#SVGID_1_"  style="overflow:visible;"/>
		</clipPath>
		<g transform="translate(903.882 999)" class="st1">
			<path class="st2" d="M-468.7,366.2h-18.9c-0.9,0-1.6-0.7-1.6-1.6s0.7-1.6,1.6-1.6h4.7c0.9,0,1.6-0.7,1.6-1.6
				c0-1.7,1.4-3.1,3.1-3.1s3.1,1.4,3.1,3.1c0,0.9,0.7,1.6,1.6,1.6h4.7c0.9,0,1.6,0.7,1.6,1.6S-467.8,366.2-468.7,366.2L-468.7,366.2
				z M-450.2,433c0.6-0.4,1.1-1,1.5-1.7L-450.2,433z M-452.9,363.1h-11.3c-0.7-1.9-2.4-3.1-4.4-3.1h-3.3c-0.9-3.4-4.3-5.4-7.7-4.5
				c-2.2,0.6-3.9,2.3-4.5,4.5h-3.3c-2,0-3.8,1.3-4.4,3.1h-11.3c-2.6,0-4.7,2.1-4.7,4.7c0,0,0,0,0,0v61.3c0,2.6,2.1,4.7,4.7,4.7
				c0,0,0,0,0,0h35.6c-0.2-1-0.3-2.1-0.4-3.1v0h-35.2c-0.9,0-1.6-0.7-1.6-1.6v-61.4c0-0.9,0.7-1.6,1.6-1.6h11.3
				c0.7,1.9,2.4,3.1,4.4,3.1h18.9c2,0,3.8-1.3,4.4-3.1h11.3c0.9,0,1.6,0.7,1.6,1.6v47.1h0.1c1,0.1,2.1,0.3,3.1,0.5v-47.7
				C-448.2,365.2-450.3,363.1-452.9,363.1C-452.9,363.1-452.9,363.1-452.9,363.1z"/>
			<path class="st2" d="M-490.7,396.1h-7.9c-0.9,0-1.6,0.7-1.6,1.6v7.9c0,0.9,0.7,1.6,1.6,1.6h7.9c0.9,0,1.6-0.7,1.6-1.6v-7.9
				C-489.1,396.8-489.8,396.1-490.7,396.1z M-492.3,404h-4.7v-4.7h4.7V404z"/>
			<path class="st2" d="M-490.7,411.8h-7.9c-0.9,0-1.6,0.7-1.6,1.6v7.9c0,0.9,0.7,1.6,1.6,1.6h7.9c0.9,0,1.6-0.7,1.6-1.6v-7.9
				C-489.1,412.5-489.8,411.8-490.7,411.8z M-492.3,419.7h-4.7V415h4.7V419.7z"/>
			<path class="st2" d="M-457.7,396.1h-26.7c-0.9,0-1.6,0.7-1.6,1.6s0.7,1.6,1.6,1.6h26.7c0.9,0,1.6-0.7,1.6-1.6
				S-456.8,396.1-457.7,396.1z"/>
			<path class="st2" d="M-484.4,405.5h15.7c0.9,0,1.6-0.7,1.6-1.6s-0.7-1.6-1.6-1.6l0,0h-15.7c-0.9,0-1.6,0.7-1.6,1.6
				S-485.3,405.5-484.4,405.5z"/>
			<path class="st2" d="M-457.7,411.8h-26.7c-0.9,0-1.6,0.7-1.6,1.6c0,0.9,0.7,1.6,1.6,1.6h26.7c0.9,0,1.6-0.7,1.6-1.6
				C-456.1,412.5-456.8,411.8-457.7,411.8z"/>
			<path class="st2" d="M-468.7,418.1h-15.7c-0.9,0-1.6,0.7-1.6,1.6s0.7,1.6,1.6,1.6c0,0,0,0,0,0h15.7c0.9,0,1.6-0.7,1.6-1.6
				C-467.1,418.8-467.8,418.1-468.7,418.1z"/>
			<g transform="translate(48.076 75.099)">
				<path class="st2" d="M-506.1,355.6h-1.9c0.4-0.5,1.2-0.5,1.7-0.2L-506.1,355.6z"/>
			</g>
			<g transform="translate(40.899 60.663)">
				<path class="st2" d="M-489.1,355.8c-1-0.3-2.1-0.5-3.1-0.6c-0.4,0-0.7,0-1.1,0c-8.1,0-14.7,6.6-14.7,14.7v0.2
					c0,1.1,0.1,2.1,0.4,3.1c1.8,7.9,9.7,12.8,17.6,11s12.8-9.7,11-17.6C-480.2,361.4-484.1,357.3-489.1,355.8L-489.1,355.8z
					 M-493.3,381.6c-5.2,0-9.8-3.4-11.2-8.4c-0.3-1-0.5-2.1-0.5-3.1v-0.2c0-6.5,5.3-11.7,11.7-11.7c0.4,0,0.7,0,1.1,0.1
					c6,0.5,10.7,5.6,10.7,11.7C-481.6,376.4-486.9,381.6-493.3,381.6z"/>
				<path class="st2" d="M-485.8,366.2l-3.8,4.4l-1.5,1.7l0,0l-2.1,2.5c-0.8,0.9-2.2,1.1-3.2,0.3l-2.5-1.9l-1.7-1.3
					c-0.5-0.4-0.6-1.2-0.2-1.7c0,0,0,0,0,0c0,0,0-0.1,0.1-0.1h1.9l3.9,3l5.9-6.8l1.5-1.7c0.5-0.5,1.2-0.6,1.8-0.1
					C-485.4,364.9-485.4,365.7-485.8,366.2z"/>
			</g>
			<g transform="translate(19.067 17.936)">
				<path class="st2" d="M-487.2,359.5c-0.6-0.9-1.3-1.8-2.1-2.6c-0.9-0.9-2.2-1.3-3.4-1.1c-0.3,0.1-0.6,0.2-0.9,0.4
					c-1-0.7-2.3-1-3.5-1c-1.3,0-2.5,0.3-3.6,1c-0.3-0.2-0.5-0.3-0.8-0.4c-1.3-0.2-2.6,0.2-3.4,1.1c-0.8,0.8-1.5,1.6-2.1,2.6
					c-0.9,1.6-1.1,2.9-0.5,4c0.5,0.9,1.4,1.5,2.4,1.7c-0.1,0.6-0.2,1.2-0.2,1.8c0,1.2,0.3,2.4,0.9,3.4c0.6,0.9,1.4,1.5,2.3,2
					c1.6,0.7,3.3,1,5,0.9c1.7,0.1,3.4-0.3,5-0.9c0.9-0.4,1.7-1.1,2.3-2c0.6-1,0.9-2.2,0.9-3.4c0-0.6-0.1-1.2-0.2-1.8
					c1-0.1,1.9-0.8,2.4-1.7c0.2-0.4,0.4-0.9,0.4-1.4C-486.4,361.2-486.7,360.3-487.2,359.5z M-490.4,358.2c0.7,0.6,1.3,1.4,1.8,2.2
					c0.4,0.7,0.9,1.7,0.5,2.3c-0.3,0.5-0.8,0.9-1.4,0.8c-0.1-0.3-0.2-0.6-0.3-0.8c-0.2-0.4-0.3-0.9-0.5-1.4c-0.4-1.4-1-2.7-1.9-3.9
					C-491.6,357.4-490.9,357.6-490.4,358.2L-490.4,358.2z M-503.9,361.3c-0.2,0.5-0.3,1-0.5,1.4l0,0c-0.1,0.3-0.2,0.6-0.3,0.9
					c-0.6,0-1.1-0.3-1.4-0.8c-0.4-0.6,0.1-1.6,0.5-2.3c0.5-0.8,1.1-1.5,1.8-2.2c0.4-0.5,1-0.7,1.7-0.8h0.2
					C-502.9,358.6-503.5,359.9-503.9,361.3z M-497.2,367c-0.2-0.1-0.4-0.2-0.5-0.3c-0.2-0.1-0.3-0.3-0.3-0.5c0-0.1,0-0.1,0.1-0.1
					c0.3-0.1,0.5-0.1,0.8-0.1c0.3,0,0.5,0,0.8,0.1c0.1,0,0.1,0,0.1,0.1c0,0.2-0.2,0.4-0.3,0.5C-496.8,366.9-497,367-497.2,367
					L-497.2,367z M-490.8,368.4c-0.1,0.4-0.3,0.8-0.5,1.1c-0.4,0.6-0.9,1.1-1.6,1.4c-1.1,0.5-2.3,0.7-3.4,0.7v-3.1
					c0.3-0.2,0.6-0.4,0.9-0.6c0.5-0.5,0.8-1.1,0.8-1.7c0-0.7-0.4-1.4-1.1-1.7c-0.5-0.2-0.9-0.2-1.4-0.2c-0.5,0-1,0-1.4,0.2
					c-0.7,0.3-1.1,0.9-1.1,1.7c0,0.7,0.3,1.3,0.8,1.7c0.3,0.3,0.5,0.5,0.9,0.6v3.1c-1.2,0-2.4-0.3-3.4-0.7c-0.7-0.3-1.2-0.8-1.6-1.4
					c-0.5-0.7-0.7-1.6-0.6-2.5c0-1.3,0.3-2.6,0.8-3.7c0.2-0.5,0.3-0.9,0.5-1.5c0.4-1.3,1-2.5,1.8-3.5c0.9-1,2.1-1.5,3.4-1.4
					c1.3-0.1,2.5,0.4,3.4,1.4c0.8,1.1,1.4,2.3,1.8,3.5c0.2,0.6,0.4,1,0.5,1.5c0.5,1.2,0.8,2.4,0.8,3.7
					C-490.7,367.5-490.7,367.9-490.8,368.4L-490.8,368.4z"/>
			</g>
		</g>
	</g>
</g>
</svg>
