<?xml version="1.0" encoding="utf-8"?>
<!-- Generator: Adobe Illustrator 19.1.0, SVG Export Plug-In . SVG Version: 6.00 Build 0)  -->
<svg version="1.1" id="Layer_1" xmlns="http://www.w3.org/2000/svg" xmlns:xlink="http://www.w3.org/1999/xlink" x="0px" y="0px"
	 viewBox="-75 348.2 90 90" style="enable-background:new -75 348.2 90 90;" xml:space="preserve">
<style type="text/css">
	.st0{opacity:0.8;fill:#DCAF27;enable-background:new    ;}
	.st1{clip-path:url(#SVGID_2_);fill:#671E75;}
	.st2{clip-path:url(#SVGID_2_);fill:none;stroke:#671E75;stroke-width:3;stroke-miterlimit:10;}
</style>
<circle class="st0" cx="-30.5" cy="393.7" r="44.5"/>
<g>
	<defs>
		<rect id="SVGID_1_" x="-75" y="348.2" width="90" height="90"/>
	</defs>
	<clipPath id="SVGID_2_">
		<use xlink:href="#SVGID_1_"  style="overflow:visible;"/>
	</clipPath>
	<path class="st1" d="M-1.2,357.2h-12.9c-0.8-2.2-2.8-3.6-5.1-3.6H-23c-1-3.9-4.9-6.2-8.8-5.2c-2.5,0.7-4.5,2.6-5.2,5.2h-3.8
		c-2.3,0-4.3,1.4-5.1,3.6h-12.9c-3,0-5.4,2.4-5.4,5.4c0,0,0,0,0,0v70.2c0,3,2.4,5.4,5.4,5.4c0,0,0,0,0,0h57.6c3,0,5.4-2.4,5.4-5.4
		c0,0,0,0,0,0v-70.2C4.2,359.6,1.8,357.2-1.2,357.2C-1.2,357.2-1.2,357.2-1.2,357.2z M-40.8,357.2h5.4c1,0,1.8-0.8,1.8-1.8
		c0-2,1.6-3.6,3.6-3.6c2,0,3.6,1.6,3.6,3.6c0,1,0.8,1.8,1.8,1.8h5.4c1,0,1.8,0.8,1.8,1.8c0,1-0.8,1.8-1.8,1.8h-21.6
		c-1,0-1.8-0.8-1.8-1.8S-41.8,357.2-40.8,357.2z M0.6,432.8c0,1-0.8,1.8-1.8,1.8h-57.6c-1,0-1.8-0.8-1.8-1.8v-70.2
		c0-1,0.8-1.8,1.8-1.8h12.9c0.8,2.2,2.8,3.6,5.1,3.6h21.6c2.3,0,4.3-1.4,5.1-3.6h12.9c1,0,1.8,0.8,1.8,1.8V432.8z"/>
	<path class="st1" d="M-44.4,395h-9c-1,0-1.8,0.8-1.8,1.8v9c0,1,0.8,1.8,1.8,1.8h9c1,0,1.8-0.8,1.8-1.8v-9
		C-42.6,395.8-43.4,395-44.4,395z M-46.2,404h-5.4v-5.4h5.4V404z"/>
	<path class="st1" d="M-44.4,413h-9c-1,0-1.8,0.8-1.8,1.8v9c0,1,0.8,1.8,1.8,1.8h9c1,0,1.8-0.8,1.8-1.8v-9
		C-42.6,413.8-43.4,413-44.4,413z M-46.2,422h-5.4v-5.4h5.4V422z"/>
	<path class="st1" d="M-6.6,395h-30.6c-1,0-1.8,0.8-1.8,1.8s0.8,1.8,1.8,1.8c0,0,0,0,0,0h30.6c1,0,1.8-0.8,1.8-1.8S-5.6,395-6.6,395
		C-6.6,395-6.6,395-6.6,395z"/>
	<path class="st1" d="M-37.2,405.8h18c1,0,1.8-0.8,1.8-1.8c0-1-0.8-1.8-1.8-1.8h-18c-1,0-1.8,0.8-1.8,1.8
		C-39,405-38.2,405.8-37.2,405.8C-37.2,405.8-37.2,405.8-37.2,405.8z"/>
	<path class="st1" d="M-6.6,413h-30.6c-1,0-1.8,0.8-1.8,1.8c0,1,0.8,1.8,1.8,1.8h30.6c1,0,1.8-0.8,1.8-1.8S-5.6,413-6.6,413
		C-6.6,413-6.6,413-6.6,413z"/>
	<path class="st1" d="M-19.2,420.2h-18c-1,0-1.8,0.8-1.8,1.8c0,1,0.8,1.8,1.8,1.8c0,0,0,0,0,0h18c1,0,1.8-0.8,1.8-1.8
		C-17.4,421-18.2,420.2-19.2,420.2z"/>
	<path class="st2" d="M-22.1,379.5l-0.6,0.6l-7.4,7.4l-7.4-7.4l-0.6-0.6c-5.1-5.3,3.3-12.5,7.9-6.8C-25.4,367.1-17,374.3-22.1,379.5
		z"/>
</g>
</svg>
